# xmcd
#
# Track frame offsets: 
#        150
#        17861
#        35127
#        52070
#        67095
#        85041
#        100068
#        114891
#        136091
#        151779
#        169191
#        185288
#        197014
#        213900
#
# Disc length: 3076 seconds
#
# Revision: 0
# Processed by: cddbd v1.5.2PL0 Copyright (c) Steve Scherf et al.
# Submitted via: ExactAudioCopyFreeDBPlugin 1.0
#
DISCID=b70c020e
DTITLE=Rick Vito - Mojo On My Side
DYEAR=2015
DGENRE=Blues
TTITLE0=Mojo On My Side
TTITLE1=Easy Baby
TTITLE2=Pretty Women
TTITLE3=My House
TTITLE4=Missy Brown
TTITLE5=Life Was Just A Struggle
TTITLE6=Femme Fatale
TTITLE7=Who Were You Thinking Of?
TTITLE8=House Party
TTITLE9=Let A Woman Be A Woman
TTITLE10=She's Got It All
TTITLE11=Help Me Lord
TTITLE12=You Can Run
TTITLE13=River Of Blues
EXTD=
EXTT0=
EXTT1=
EXTT2=
EXTT3=
EXTT4=
EXTT5=
EXTT6=
EXTT7=
EXTT8=
EXTT9=
EXTT10=
EXTT11=
EXTT12=
EXTT13=
PLAYORDER=
